HIERARCHY
ROOT Hips
{
	OFFSET 0.000000 0.000000 0.000000
	CHANNELS 6 Xposition Yposition Zposition Zrotation Yrotation Xrotation 
	JOINT LHipJoint
	{
		OFFSET 0.000000 0.000000 0.000000
		CHANNELS 3 Zrotation Yrotation Xrotation
		JOINT LeftUpLeg
		{
			OFFSET 1.363060 -1.794630 0.839290
			CHANNELS 3 Zrotation Yrotation Xrotation
			JOINT LeftLeg
			{
				OFFSET 2.448110 -6.726130 0.000000
				CHANNELS 3 Zrotation Yrotation Xrotation
				JOINT LeftFoot
				{
					OFFSET 2.562200 -7.039590 0.000000
					CHANNELS 3 Zrotation Yrotation Xrotation
					JOINT LeftToeBase
					{
						OFFSET 0.157640 -0.433110 2.322550
						CHANNELS 3 Zrotation Yrotation Xrotation
						End Site
						{
							OFFSET 0.000000 0.000000 0.000000
						}
					}
				}
			}
		}
	}
	JOINT RHipJoint
	{
		OFFSET 0.000000 0.000000 0.000000
		CHANNELS 3 Zrotation Yrotation Xrotation
		JOINT RightUpLeg
		{
			OFFSET -1.305520 -1.794630 0.839290
			CHANNELS 3 Zrotation Yrotation Xrotation
			JOINT RightLeg
			{
				OFFSET -2.542530 -6.985550 0.000000
				CHANNELS 3 Zrotation Yrotation Xrotation
				JOINT RightFoot
				{
					OFFSET -2.568260 -7.056230 0.000000
					CHANNELS 3 Zrotation Yrotation Xrotation
					JOINT RightToeBase
					{
						OFFSET -0.164730 -0.452590 2.363150
						CHANNELS 3 Zrotation Yrotation Xrotation
						End Site
						{
							OFFSET 0.000000 0.000000 0.000000
						}
					}
				}
			}
		}
	}
	JOINT LowerBack
	{
		OFFSET 0.000000 0.000000 0.000000
		CHANNELS 3 Zrotation Yrotation Xrotation
		JOINT Spine
		{
			OFFSET 0.028270 2.035590 -0.193380
			CHANNELS 3 Zrotation Yrotation Xrotation
			JOINT Spine1
			{
				OFFSET 0.056720 2.048850 -0.042750
				CHANNELS 3 Zrotation Yrotation Xrotation
				JOINT Neck
				{
					OFFSET 0.000000 0.000000 0.000000
					CHANNELS 3 Zrotation Yrotation Xrotation
					JOINT Neck1
					{
						OFFSET -0.054170 1.746240 0.172020
						CHANNELS 3 Zrotation Yrotation Xrotation
						JOINT Head
						{
							OFFSET 0.104070 1.761360 -0.123970
							CHANNELS 3 Zrotation Yrotation Xrotation
							End Site
							{
								OFFSET 0.000000 0.000000 0.000000
							}
						}
					}
				}
				JOINT LeftShoulder
				{
					OFFSET 0.000000 0.000000 0.000000
					CHANNELS 3 Zrotation Yrotation Xrotation
					JOINT LeftArm
					{
						OFFSET 3.362410 1.200890 -0.311210
						CHANNELS 3 Zrotation Yrotation Xrotation
						JOINT LeftForeArm
						{
							OFFSET 4.983000 -0.000000 -0.000000
							CHANNELS 3 Zrotation Yrotation Xrotation
							JOINT LeftHand
							{
								OFFSET 3.483560 -0.000000 -0.000000
								CHANNELS 3 Zrotation Yrotation Xrotation
								JOINT LeftFingerBase
								{
									OFFSET 0.000000 0.000000 0.000000
									CHANNELS 3 Zrotation Yrotation Xrotation
									JOINT LeftHandIndex1
									{
										OFFSET 0.715260 -0.000000 -0.000000
										CHANNELS 3 Zrotation Yrotation Xrotation
										End Site
										{
											OFFSET 0.000000 0.000000 0.000000
										}
									}
								}
								JOINT LThumb
								{
									OFFSET 0.000000 0.000000 0.000000
									CHANNELS 3 Zrotation Yrotation Xrotation
									End Site
									{
										OFFSET 0.000000 0.000000 0.000000
									}
								}
							}
						}
					}
				}
				JOINT RightShoulder
				{
					OFFSET 0.000000 0.000000 0.000000
					CHANNELS 3 Zrotation Yrotation Xrotation
					JOINT RightArm
					{
						OFFSET -3.136600 1.374050 -0.404650
						CHANNELS 3 Zrotation Yrotation Xrotation
						JOINT RightForeArm
						{
							OFFSET -5.241900 -0.000000 -0.000000
							CHANNELS 3 Zrotation Yrotation Xrotation
							JOINT RightHand
							{
								OFFSET -3.444170 -0.000000 -0.000000
								CHANNELS 3 Zrotation Yrotation Xrotation
								JOINT RightFingerBase
								{
									OFFSET 0.000000 0.000000 0.000000
									CHANNELS 3 Zrotation Yrotation Xrotation
									JOINT RightHandIndex1
									{
										OFFSET -0.622530 -0.000000 -0.000000
										CHANNELS 3 Zrotation Yrotation Xrotation
										End Site
										{
											OFFSET 0.000000 0.000000 0.000000
										}
									}
								}
								JOINT RThumb
								{
									OFFSET 0.000000 0.000000 0.000000
									CHANNELS 3 Zrotation Yrotation Xrotation
									End Site
									{
										OFFSET 0.000000 0.000000 0.000000
									}
								}
							}
						}
					}
				}
			}
		}
	}
}
MOTION
Frames: 11
Frame Time: 0.008333
4.013558 17.317756 -1.558504 47.987392 -74.013532 -10.734706 -5.245936 0.264820 11.751981 1.779607 -27.228950 -112.020493 -7.720576 -4.192052 -5.989905 -1.078424 0.000949 10.634304 1.865600 0.000000 -45.144800 9.641412 2.390943 -2.292717 8.887058 -7.319817 -43.464332 2.699298 0.713852 11.728349 -2.600710 -9.115336 -8.776554 -0.817800 0.000000 -44.951301 -13.108778 -2.018828 -3.785630 -3.448571 -1.361996 -3.525235 -5.135457 -1.485303 1.324614 8.719623 -9.425463 -13.221284 -2.031285 -0.052057 -1.910545 0.000000 0.000000 0.000000 -1.196084 15.335748 3.332946 -49.517358 2.092674 -38.006395 -1.286423 -57.760810 -0.049420 20.004204 -4.746185 -0.882159 -0.223011 0.203876 0.000000 0.000000 0.000000 0.000000 0.000000 0.000000 0.000000 7.866233 -5.141228 2.038852 51.886482 0.895233 -41.402671 0.315501 70.425617 -0.090095 -18.513327 10.497534 -1.802687 0.205502 -0.414539 0.000000 0.000000 0.000000 0.000000 0.000000 0.000000 0.000000 
4.013190 17.330640 -1.555938 47.987095 -74.225217 -11.057236 -5.254514 0.189079 11.649741 2.117482 -26.607254 -110.924065 -7.419743 -4.106420 -5.941027 -1.020468 0.256768 10.973425 1.941300 0.000000 -44.830200 9.661960 2.373997 -2.246548 8.778258 -6.999568 -42.704177 2.614182 0.799114 11.124129 -2.656310 -9.496595 -8.486373 -0.900000 0.000000 -44.906600 -13.018924 -1.947298 -3.787115 -3.430672 -1.292000 -3.514555 -5.150800 -1.414248 1.356604 8.640216 -9.354930 -13.015611 -2.033631 -0.055908 -1.839690 0.000000 0.000000 0.000000 -1.048162 15.267838 3.307303 -49.039712 2.091171 -38.044938 -1.302845 -57.306360 -0.050589 19.990539 -4.497929 -0.837375 -0.223935 0.204668 0.000000 0.000000 0.000000 0.000000 0.000000 0.000000 0.000000 7.833343 -5.098286 1.976884 51.746370 1.369797 -40.965995 0.318878 69.940221 -0.090009 -18.433863 10.430420 -1.783498 0.203532 -0.413917 0.000000 0.000000 0.000000 0.000000 0.000000 0.000000 0.000000 
4.011982 17.344647 -1.552225 47.953572 -74.464950 -11.459602 -5.258013 0.117241 11.488688 2.162544 -26.033583 -109.421985 -7.126962 -4.022612 -5.934441 -0.952946 0.547910 11.305473 2.027300 0.000001 -44.633500 9.685833 2.346121 -2.195027 8.667872 -6.664340 -41.801342 2.519835 0.884099 10.502160 -2.716304 -9.913567 -8.185004 -0.988700 0.000000 -44.877500 -12.898858 -1.868574 -3.759650 -3.405239 -1.216116 -3.495632 -5.167764 -1.336425 1.395257 8.574242 -9.305724 -12.798391 -2.031222 -0.059584 -1.764014 0.000000 0.000000 0.000000 -0.895130 15.210411 3.275368 -48.592351 2.111743 -38.015415 -1.319846 -56.916373 -0.051573 19.929084 -4.281293 -0.796585 -0.225247 0.205860 0.000000 0.000000 0.000000 0.000000 0.000000 0.000000 0.000000 7.791478 -5.068024 1.909342 51.638958 1.821632 -40.492820 0.323248 69.501797 -0.089690 -18.298282 10.341691 -1.755506 0.201319 -0.413373 0.000000 0.000000 0.000000 0.000000 0.000000 0.000000 0.000000 
4.009995 17.359325 -1.547414 47.891906 -74.728598 -11.941866 -5.259318 0.051012 11.267698 1.894238 -25.511994 -107.542556 -6.853811 -3.936463 -5.951618 -0.878968 0.866077 11.635820 2.121700 0.000000 -44.608500 9.713173 2.307791 -2.140947 8.563244 -6.329728 -40.772573 2.421034 0.966183 9.874136 -2.776055 -10.343478 -7.880806 -1.080600 0.000000 -44.864900 -12.750805 -1.783793 -3.697438 -3.373137 -1.135608 -3.468334 -5.185968 -1.253092 1.436693 8.524948 -9.277043 -12.575976 -2.023724 -0.062936 -1.686023 0.000000 0.000000 0.000000 -0.742593 15.162593 3.238433 -48.169676 2.156909 -37.927928 -1.335479 -56.619647 -0.052409 19.835195 -4.100961 -0.761189 -0.226986 0.207475 0.000000 0.000000 0.000000 0.000000 0.000000 0.000000 0.000000 7.738875 -5.048491 1.838377 51.566077 2.238856 -40.001308 0.328270 69.129397 -0.089217 -18.128205 10.241729 -1.722511 0.199028 -0.412942 0.000000 0.000000 0.000000 0.000000 0.000000 0.000000 0.000000 
4.006670 17.373923 -1.541522 47.819636 -75.009260 -12.506913 -5.260873 -0.008229 10.997613 1.334638 -25.027013 -105.325842 -6.604671 -3.849605 -6.004318 -0.798383 1.224366 11.988824 2.232400 0.000000 -44.785800 9.745614 2.260311 -2.088104 8.477570 -6.033239 -39.660602 2.327487 1.040164 9.276102 -2.826097 -10.734928 -7.598124 -1.165301 0.000000 -44.826901 -12.581070 -1.695730 -3.607099 -3.335969 -1.053091 -3.435676 -5.205573 -1.167209 1.475848 8.493228 -9.258824 -12.349831 -2.012293 -0.066054 -1.606441 0.000000 0.000000 0.000000 -0.592967 15.112641 3.198710 -47.765162 2.251035 -37.792069 -1.348125 -56.445943 -0.053116 19.726815 -3.958026 -0.732289 -0.229205 0.209423 0.000000 0.000000 0.000000 0.000000 0.000000 0.000000 0.000000 7.675527 -5.028246 1.766045 51.527491 2.593182 -39.507793 0.333666 68.844505 -0.088655 -17.944545 10.139577 -1.688214 0.196829 -0.412604 0.000000 0.000000 0.000000 0.000000 0.000000 0.000000 0.000000 
4.002141 17.388115 -1.534328 47.729483 -75.308746 -13.141217 -5.267801 -0.061286 10.678108 0.482264 -24.551944 -102.811019 -6.386199 -3.755053 -6.065282 -0.719702 1.583826 12.372850 2.344300 -0.000001 -45.147200 9.781835 2.202637 -2.037021 8.416498 -5.775599 -38.472240 2.241346 1.106498 8.703397 -2.864773 -11.080628 -7.334621 -1.241799 -0.000000 -44.790400 -12.384572 -1.604484 -3.486409 -3.292840 -0.969073 -3.397891 -5.226054 -1.079292 1.510656 8.475497 -9.251625 -12.125085 -1.996868 -0.068837 -1.527152 0.000000 0.000000 0.000000 -0.453497 15.063622 3.156650 -47.375949 2.388869 -37.620631 -1.356267 -56.404755 -0.053732 19.621490 -3.855524 -0.710781 -0.231856 0.211671 0.000000 0.000000 0.000000 0.000000 0.000000 0.000000 0.000000 7.596282 -5.008097 1.693151 51.522100 2.884691 -39.027247 0.338795 68.653329 -0.088113 -17.765765 10.047015 -1.656411 0.194838 -0.412491 0.000000 0.000000 0.000000 0.000000 0.000000 0.000000 0.000000 
3.996167 17.401410 -1.525636 47.621823 -75.626828 -13.833290 -5.284613 -0.108408 10.314443 -0.641698 -24.050388 -100.047026 -6.201888 -3.648500 -6.114620 -0.650257 1.908096 12.794200 2.443100 -0.000000 -45.637701 9.821114 2.134179 -1.987833 8.386122 -5.565213 -37.226595 2.166230 1.164587 8.163495 -2.889092 -11.363132 -7.097025 -1.306000 0.000000 -44.750900 -12.159004 -1.511112 -3.339614 -3.243330 -0.884799 -3.356324 -5.246953 -0.990718 1.540277 8.467192 -9.254374 -11.905060 -1.977895 -0.071273 -1.449289 0.000000 0.000000 0.000000 -0.328556 15.018734 3.112559 -47.000669 2.566938 -37.425065 -1.358927 -56.497942 -0.054294 19.534563 -3.794201 -0.697469 -0.234891 0.214177 0.000000 0.000000 0.000000 0.000000 0.000000 0.000000 0.000000 7.497897 -4.987801 1.619798 51.547517 3.111733 -38.570515 0.343118 68.558833 -0.087657 -17.606060 9.972957 -1.629607 0.193149 -0.412705 0.000000 0.000000 0.000000 0.000000 0.000000 0.000000 0.000000 
3.988503 17.413481 -1.515113 47.493064 -75.965040 -14.566177 -5.315564 -0.150761 9.913713 -1.990405 -23.478905 -97.089088 -6.050203 -3.527598 -6.136068 -0.594732 2.168606 13.251887 2.516800 0.000000 -46.174800 9.862126 2.054117 -1.939175 8.390508 -5.402952 -35.941063 2.104216 1.214793 7.658095 -2.897805 -11.574095 -6.886174 -1.356301 -0.000000 -44.715300 -11.900340 -1.416726 -3.174218 -3.186581 -0.801596 -3.312718 -5.267865 -0.902985 1.564745 8.462154 -9.265901 -11.692058 -1.956120 -0.073398 -1.373562 0.000000 0.000000 0.000000 -0.221390 14.981306 3.066581 -46.639981 2.781123 -37.215985 -1.355604 -56.719840 -0.054833 19.478089 -3.772515 -0.692252 -0.238256 0.216882 0.000000 0.000000 0.000000 0.000000 0.000000 0.000000 0.000000 7.377718 -4.967462 1.545687 51.599067 3.276581 -38.145765 0.346108 68.558504 -0.087364 -17.475356 9.923213 -1.609600 0.191823 -0.413341 0.000000 0.000000 0.000000 0.000000 0.000000 0.000000 0.000000 
3.979101 17.424143 -1.502497 47.334609 -76.324539 -15.320101 -5.364063 -0.189824 9.480843 -3.506162 -22.796343 -93.992606 -5.927087 -3.390149 -6.106769 -0.556367 2.337511 13.731354 2.551899 0.000000 -46.664000 9.903015 1.962010 -1.889454 8.429943 -5.282356 -34.625023 2.055148 1.258370 7.181267 -2.892081 -11.717868 -6.697968 -1.393500 -0.000001 -44.698100 -11.603995 -1.322459 -2.994847 -3.121582 -0.720813 -3.267701 -5.288271 -0.817504 1.585410 8.454318 -9.288019 -11.488765 -1.932223 -0.075226 -1.300805 0.000000 0.000000 0.000000 -0.134178 14.958030 3.018386 -46.296994 3.017696 -37.005056 -1.346188 -57.054918 -0.055382 19.459361 -3.787693 -0.694834 -0.241856 0.219759 0.000000 0.000000 0.000000 0.000000 0.000000 0.000000 0.000000 7.234838 -4.951101 1.470142 51.669952 3.390109 -37.758518 0.347299 68.643619 -0.087272 -17.378038 9.899903 -1.597091 0.190870 -0.414480 0.000000 0.000000 0.000000 0.000000 0.000000 0.000000 0.000000 
3.967651 17.433187 -1.487465 47.137347 -76.706102 -16.067536 -5.432810 -0.226536 9.027834 -5.092923 -21.972363 -90.826430 -5.822687 -3.237991 -6.013737 -0.531761 2.419920 14.209793 2.549100 -0.000001 -47.006500 9.941318 1.857146 -1.834584 8.505074 -5.193886 -33.299996 2.019107 1.296298 6.732947 -2.873627 -11.799167 -6.531070 -1.418500 -0.000000 -44.699300 -11.266488 -1.230076 -2.815969 -3.047482 -0.644321 -3.223838 -5.307740 -0.736402 1.604183 8.437936 -9.319848 -11.295784 -1.907276 -0.076857 -1.231028 0.000000 0.000000 0.000000 -0.066516 14.952370 2.967852 -45.976576 3.270588 -36.799943 -1.331202 -57.486520 -0.055962 19.480729 -3.833190 -0.704111 -0.245641 0.222748 0.000000 0.000000 0.000000 0.000000 0.000000 0.000000 0.000000 7.070031 -4.939766 1.392388 51.751735 3.456946 -37.409467 0.346467 68.805086 -0.087397 -17.314394 9.899917 -1.591380 0.190302 -0.416131 0.000000 0.000000 0.000000 0.000000 0.000000 0.000000 0.000000 
3.953894 17.440523 -1.469751 46.889568 -77.108858 -16.778535 -5.523240 -0.261355 8.565080 -6.649635 -20.995637 -87.652885 -5.725129 -3.073064 -5.839156 -0.514682 2.435756 14.654419 2.514700 0.000000 -47.129000 9.974328 1.739432 -1.771070 8.613923 -5.123021 -31.979723 1.994435 1.330139 6.306660 -2.846043 -11.833446 -6.379909 -1.434700 -0.000001 -44.724000 -10.885571 -1.141464 -2.648470 -2.963730 -0.574083 -3.182535 -5.325682 -0.661785 1.623774 8.409161 -9.363169 -11.114172 -1.882184 -0.078358 -1.164470 0.000000 0.000000 0.000000 -0.016555 14.969270 2.914646 -45.685199 3.527101 -36.608404 -1.311414 -57.992795 -0.056594 19.539568 -3.901029 -0.718786 -0.249543 0.225823 0.000000 0.000000 0.000000 0.000000 0.000000 0.000000 0.000000 6.886772 -4.937920 1.311631 51.834112 3.488048 -37.096469 0.343488 69.030530 -0.087747 -17.281646 9.917177 -1.591369 0.190102 -0.418266 0.000000 0.000000 0.000000 0.000000 0.000000 0.000000 0.000000 
